<?xml version="1.0" encoding="UTF-8" standalone="no"?>
<svg
   xmlns:dc="http://purl.org/dc/elements/1.1/"
   xmlns:cc="http://creativecommons.org/ns#"
   xmlns:rdf="http://www.w3.org/1999/02/22-rdf-syntax-ns#"
   xmlns:svg="http://www.w3.org/2000/svg"
   xmlns="http://www.w3.org/2000/svg"
   xmlns:sodipodi="http://sodipodi.sourceforge.net/DTD/sodipodi-0.dtd"
   xmlns:inkscape="http://www.inkscape.org/namespaces/inkscape"
   width="1792"
   height="1792"
   viewBox="0 0 1792 1792"
   id="svg7774"
   version="1.1"
   inkscape:version="0.91 r13725"
   sodipodi:docname="linkedin.svg">
  <metadata
     id="metadata7782">
    <rdf:RDF>
      <cc:Work
         rdf:about="">
        <dc:format>image/svg+xml</dc:format>
        <dc:type
           rdf:resource="http://purl.org/dc/dcmitype/StillImage" />
      </cc:Work>
    </rdf:RDF>
  </metadata>
  <defs
     id="defs7780" />
  <sodipodi:namedview
     pagecolor="#ffffff"
     bordercolor="#666666"
     borderopacity="1"
     objecttolerance="10"
     gridtolerance="10"
     guidetolerance="10"
     inkscape:pageopacity="0"
     inkscape:pageshadow="2"
     inkscape:window-width="664"
     inkscape:window-height="480"
     id="namedview7778"
     showgrid="false"
     inkscape:zoom="0.13169643"
     inkscape:cx="896"
     inkscape:cy="896"
     inkscape:window-x="0"
     inkscape:window-y="0"
     inkscape:window-maximized="0"
     inkscape:current-layer="svg7774" />
  <path
     d="M477 625v991h-330v-991h330zm21-306q1 73-50.5 122t-135.5 49h-2q-82 0-132-49t-50-122q0-74 51.5-122.5t134.5-48.5 133 48.5 51 122.5zm1166 729v568h-329v-530q0-105-40.5-164.5t-126.5-59.5q-63 0-105.5 34.5t-63.5 85.5q-11 30-11 81v553h-329q2-399 2-647t-1-296l-1-48h329v144h-2q20-32 41-56t56.5-52 87-43.5 114.5-15.5q171 0 275 113.5t104 332.5z"
     id="path7776"
     style="fill:#474851;fill-opacity:1" />
</svg>
